<?xml version="1.0" encoding="UTF-8" standalone="no"?>
<svg
   xmlns:dc="http://purl.org/dc/elements/1.1/"
   xmlns:cc="http://creativecommons.org/ns#"
   xmlns:rdf="http://www.w3.org/1999/02/22-rdf-syntax-ns#"
   xmlns:svg="http://www.w3.org/2000/svg"
   xmlns="http://www.w3.org/2000/svg"
   xml:space="preserve"
   viewBox="0 0 256 256"
   height="256"
   width="256"
   y="0px"
   x="0px"
   id="designs"
   version="1.1"><defs
   id="defs13" />
<title
   id="title2"
   property="dc:title">to fight</title><desc
   id="desc4"
   property="dc:description">An icon for &quot;fight&quot; from the Sketchy series on to [icon]. Downloaded from http://www.toicon.com/icons/sketchy_fight by 145.128.203.173 on 2018-06-28. Licensed CC-BY, see http://toicon.com/license/ for details.</desc>

<metadata
   id="metadata8"><work
     rdf:about=""><format>image/svg+xml</format><type
       rdf:resource="http://purl.org/dc/dcmitype/StillImage" /><license
       rdf:resource="http://creativecommons.org/licenses/by/4.0/" /><attributionname>Shannon E Thomas</attributionname><attributionurl>http://www.toicon.com/icons/sketchy_fight</attributionurl></work><rdf:RDF><cc:Work
       rdf:about=""><dc:format>image/svg+xml</dc:format><dc:type
         rdf:resource="http://purl.org/dc/dcmitype/StillImage" /><dc:title>to fight</dc:title></cc:Work></rdf:RDF></metadata><g
   transform="translate(0,224)"
   id="layer1" /><g
   transform="translate(0,224)"
   id="layer2"><path
     id="path6"
     style="fill:#111918;stroke-width:8.19056511"
     d="m 241.41776,-138.38826 c -0.0984,-2.70289 -0.12286,-5.39758 -0.18843,-8.08409 -0.15565,-5.96273 -0.12286,-11.91727 -0.0984,-17.88 0.0162,-5.65968 0.0654,-11.30298 0.23749,-16.95447 0.18844,-6.10197 0.76991,-12.18756 1.26137,-18.27315 0.14735,-1.83469 -0.7208,-3.48919 -2.03946,-4.68501 -0.31941,-0.82725 -0.7863,-1.58896 -1.41699,-2.22783 -1.08933,-1.08115 -2.9568,-2.08859 -4.54576,-1.88383 -2.64555,0.32763 -5.31568,0.20477 -7.96943,0.29486 -2.70286,0.10649 -5.40577,0.10649 -8.11685,0.1884 -6.05279,0.15562 -12.10563,0.17199 -18.15847,0.0819 -2.87488,-0.0327 -5.75796,-0.0164 -8.61647,0.0164 -3.16155,0.0409 -6.32312,0.0737 -9.48468,-0.008 -6.65073,-0.15562 -13.28509,-0.39315 -19.93583,-0.75353 -0.0983,-0.008 -0.19657,-0.008 -0.28664,-0.008 -0.99106,0 -1.89203,0.33582 -2.72746,0.81087 -0.22934,-0.0246 -0.43407,-0.18018 -0.66344,-0.18018 -0.57334,0 -1.14668,0.0737 -1.70364,0.22934 -1.77735,0.49144 -2.85031,1.57259 -3.88232,2.98956 -4.49663,6.08559 -9.10792,12.07289 -13.62092,18.15029 -3.79222,5.10272 -7.51893,10.2464 -11.36031,15.30817 -4.29187,5.53688 -8.55916,11.04913 -12.61349,16.77433 -3.6448,5.16006 -7.24865,10.37745 -10.99174,15.47198 -3.83318,5.25015 -7.748275,10.45935 -11.474982,15.79141 -3.792231,5.42215 -7.453414,10.90983 -11.114595,16.4139 -2.989557,4.48024 -6.036446,8.919525 -9.026005,13.39976 -1.851066,2.735655 -3.521941,5.594157 -5.22558,8.428097 -0.589721,-0.663441 -1.171251,-1.335063 -1.769164,-1.998505 -3.775849,-4.144423 -7.707318,-8.157802 -11.655172,-12.154796 -0.122876,-1.449736 -0.638863,-2.866696 -1.76097,-3.988806 -1.244969,-1.24496 -2.981368,-1.90021 -4.709575,-1.90021 -1.670877,0 -3.333561,0.61429 -4.521192,1.90021 -5.79892,6.224831 -12.01556,12.105657 -18.084768,18.084771 -2.358883,2.31793 -2.448978,6.044633 -0.54877,8.649235 0.278482,0.933723 0.712579,1.81831 1.474302,2.514505 2.866697,2.604602 5.684251,5.291102 8.28066,8.174184 2.301549,2.539078 4.439286,5.225578 6.560644,7.912087 1.670875,2.219643 3.325368,4.455666 5.102721,6.593403 -0.147427,0.12289 -0.335815,0.172032 -0.475057,0.311243 -2.481677,2.498415 -4.938847,5.045682 -7.502494,7.486465 -2.342399,2.235838 -4.766808,4.406343 -7.142071,6.601414 -2.817553,2.596405 -5.626917,5.176434 -8.346186,7.846561 -3.063271,3.005935 -5.864444,6.29035 -8.305232,9.828675 -1.343253,1.965733 -1.064774,4.480237 0.07372,6.495122 -0.0082,0.09829 -0.05731,0.188372 -0.05731,0.28664 0,1.859261 0.753532,3.3335611 1.949355,4.7013855 3.693944,4.2427089 7.576273,8.33799713 11.384884,12.4987991 1.605351,1.760975 3.415466,3.284417 5.127294,4.922534 0.87639,0.8190554 1.662684,1.7282064 2.498123,2.6127934 1.16306,1.228585 2.252405,2.260595 3.636609,3.284415 1.285918,0.974676 3.415468,1.056581 4.906148,0.647051 1.40878,-0.384929 2.58822,-1.318683 3.431847,-2.481741 0.327624,-0.221116 0.671628,-0.37677 0.99925,-0.647052 C 53.599906,8.8459196 58.956537,4.4475846 64.206686,-0.06541247 68.613212,-3.841268 72.872307,-7.7727392 77.418071,-11.352017 c 0.671626,-0.532358 1.122107,-1.351438 1.425156,-2.236025 2.792984,3.063276 5.610539,6.0937823 8.305235,9.2553393 1.113916,1.3104911 2.227832,2.6127912 3.300796,3.94785543 0.09829,0.1474268 0.204767,0.2948596 0.303053,0.4504511 1.777351,2.73565287 5.299296,3.86594877 8.223329,2.15412677 0.04096,-0.024551 0.07373,-0.073673 0.114658,-0.1064412 0.884581,-0.1064411 1.744592,-0.3686094 2.416222,-0.8436356 4.20176,-2.9895532 8.17419,-6.2084436 12.04832,-9.5747668 2.19507,-1.908405 4.30005,-3.915091 6.43778,-5.880825 0.84363,-0.08191 1.67907,-0.319463 2.46536,-0.786293 2.90765,-1.695458 3.93147,-5.553215 2.21965,-8.460863 -0.73717,-1.269517 -1.88385,-2.440769 -2.87491,-3.538304 -0.73715,-0.835436 -1.46611,-1.662681 -2.23602,-2.465361 -1.72821,-1.810113 -3.38271,-3.661184 -5.09453,-5.487677 -0.77811,-0.819055 -1.52345,-1.670879 -2.29336,-2.498124 4.66043,-3.2107 9.14886,-6.675309 13.74377,-9.992488 5.77435,-4.185377 11.63879,-8.23971 17.37218,-12.457849 5.21739,-3.816805 10.37745,-7.740089 15.58665,-11.57327 5.65969,-4.185382 11.43403,-8.157802 17.29847,-12.048324 4.92253,-3.268033 9.74678,-6.667118 14.63655,-10.000679 5.01262,-3.431844 10.22181,-6.58521 15.40646,-9.77953 5.00443,-3.07965 10.06619,-6.05283 15.0133,-9.19801 5.59414,-3.53833 11.19648,-7.07665 16.85618,-10.51669 2.76022,-1.68725 3.82498,-5.07815 2.69469,-8.02675 0.008,-0.0409 0.049,-0.0737 0.0571,-0.12288 0.36855,-2.44079 0.65525,-4.78329 0.57336,-7.24865 z M 62.462104,-14.727107 c -2.252405,1.982123 -4.545762,3.915093 -6.855502,5.8153028 C 51.322933,-5.38167 46.883647,-2.03992 42.485317,1.3591654 42.206835,1.0479217 41.961118,0.71211093 41.658069,0.43363143 c -0.72077,-0.6798146 -1.539826,-1.2449647 -2.276978,-1.90021033 -0.974676,-0.8518165 -1.826495,-1.8264989 -2.670125,-2.768413 -3.153366,-3.5055609 -6.224829,-7.1012191 -9.288098,-10.6804911 0.13923,-0.188412 0.270291,-0.384929 0.401339,-0.573343 1.859257,-2.227834 3.710325,-4.455666 5.757967,-6.519688 2.276978,-2.309739 4.578525,-4.63586 6.921028,-6.904646 4.512999,-4.340998 9.206196,-8.501809 13.817484,-12.752711 3.571083,4.185377 7.076646,8.419903 10.754211,12.515183 2.031259,2.252405 4.103473,4.463857 6.10197,6.765407 0.13925,0.163804 0.286672,0.327624 0.425914,0.499597 -1.138489,0.253878 -2.244218,0.704385 -3.145179,1.556203 -2.014877,1.859263 -3.939662,3.792233 -5.995494,5.602343 z m 27.078008,-5.086336 c -1.711828,-1.867451 -3.521943,-3.661183 -5.176436,-5.594155 -1.810117,-2.137736 -3.677567,-4.226335 -5.536824,-6.3395 -4.136233,-4.701386 -8.337995,-9.320864 -12.375942,-14.136912 -3.915093,-4.668622 -8.223328,-9.026009 -12.03194,-13.792912 -0.262099,-0.327624 -0.532388,-0.663439 -0.794487,-0.991063 -2.7766,-3.636607 -5.569582,-7.256839 -8.387137,-10.827924 -2.154119,-2.752033 -4.521191,-5.315676 -6.961982,-7.805608 3.005937,-3.038703 5.979114,-6.110163 8.935907,-9.198004 3.349943,3.227081 6.691693,6.454161 9.804106,9.926963 3.996998,4.431091 7.9858,8.853997 11.982798,13.252332 4.20176,4.619477 8.632857,9.042389 12.941092,13.571771 3.996996,4.226329 8.133233,8.362563 12.17118,12.564327 3.865949,4.013373 7.535323,8.206947 11.286603,12.326799 1.42516,1.55621 2.80117,3.177937 4.21814,4.758718 -2.98136,2.563649 -6.04464,5.053576 -9.09972,7.510746 -1.326872,0.991056 -2.678314,1.949358 -4.021567,2.915843 -0.491435,-0.573341 -0.941916,-1.179442 -1.42516,-1.752781 -1.801924,-2.14593 -3.62842,-4.300048 -5.528631,-6.38864 z M 212.52964,-121.90884 c -5.29928,3.57108 -10.69688,7.01112 -16.06988,10.47573 -5.8153,3.72671 -11.60604,7.53532 -17.31486,11.434034 -5.4713,3.726702 -11.0245,7.355124 -16.46304,11.114594 -9.93515,6.888268 -19.46897,14.308922 -29.28127,21.369182 -4.84062,3.489183 -9.73039,6.937411 -14.54644,10.492118 -2.46536,1.826499 -4.93891,3.62023 -7.45341,5.381204 -2.42441,1.670873 -5.01263,3.079651 -7.53533,4.611289 -0.13105,0.07368 -0.19657,0.204734 -0.31943,0.286641 -0.14743,-0.163811 -0.30306,-0.327625 -0.45049,-0.491437 -2.53088,-2.702889 -5.176433,-5.30749 -7.797416,-7.928466 0.03277,-0.03253 0.09011,-0.04908 0.122876,-0.08191 4.496624,-5.364826 9.21438,-10.598595 14.43178,-15.267216 4.87339,-4.357378 9.40277,-9.042381 13.99767,-13.678242 4.63586,-4.685006 9.18163,-9.468298 13.85025,-14.104159 4.97167,-4.922522 10.08258,-9.673052 15.06245,-14.546442 4.6031,-4.49662 9.14886,-9.04239 13.84206,-13.44072 4.80786,-4.52938 9.70581,-8.97686 14.4072,-13.63729 9.21438,-9.12429 18.74821,-17.91277 28.29021,-26.68486 2.44897,-2.27698 2.27696,-6.39684 0,-8.69838 -1.17944,-1.17944 -2.79297,-1.78555 -4.40653,-1.78555 -1.57257,0 -3.14517,0.58153 -4.28366,1.77736 -4.37377,4.59491 -9.07514,8.90314 -13.72739,13.21138 -5.12729,4.73415 -10.18906,9.52563 -15.20988,14.39082 -4.685,4.54577 -9.55838,8.88676 -14.35806,13.31786 -5.04539,4.66862 -9.84506,9.59115 -14.73482,14.42359 -4.63586,4.60312 -9.50105,8.99327 -14.18606,13.55542 -4.61947,4.51299 -9.13248,9.165238 -13.77653,13.678238 -4.66862,4.562145 -9.27991,9.13248 -14.25977,13.334244 -5.217395,4.373762 -10.033447,9.263531 -14.489115,14.423583 -0.466862,-0.499622 -0.933723,-0.991058 -1.400585,-1.490684 -2.121356,-2.276979 -4.341001,-4.480239 -6.429596,-6.789978 -0.540579,-0.606101 -1.081154,-1.220396 -1.621733,-1.826495 2.760222,-4.906151 5.602349,-9.75496 8.649237,-14.489105 3.284417,-5.094534 6.65074,-10.123545 9.935157,-15.218073 3.62023,-5.59416 7.297795,-11.1146 11.098215,-16.59409 3.80862,-5.4713 7.78104,-10.83612 11.68794,-16.22551 4.39014,-6.0774 8.60829,-12.26128 13.04757,-18.28134 5.16006,-6.58521 10.38564,-13.09672 15.58665,-19.64917 5.33206,-6.74083 10.74602,-13.42433 15.98798,-20.23888 6.62617,0.27848 13.24415,0.23752 19.87031,0.17199 6.03645,-0.0655 12.06471,0 18.10115,0.0983 2.98956,0.0491 5.97912,0.23753 8.96048,0.20477 3.06326,-0.0328 6.13473,-0.12288 9.19798,-0.10648 2.70291,0.0164 5.40577,0.0164 8.11686,-0.0327 0.93372,-0.008 1.85926,-0.0574 2.79299,-0.0983 -0.52421,10.15631 -0.4996,20.3126 -0.4996,30.48529 0.0162,5.62692 0.0326,11.2784 0.12285,16.90532 0.0492,2.53089 0.0984,5.06177 0.0984,7.59266 0.0162,1.97392 0.049,3.9888 -0.10626,5.97092 -0.008,0.0655 -0.0245,0.13925 -0.0326,0.20476 -0.10646,0.58154 -0.0903,1.12211 -0.0903,1.67088 -5.53682,3.50556 -10.98353,7.13398 -16.41387,10.80335 z"
     class="sketchy_een" /></g></svg>